<svg xmlns="http://www.w3.org/2000/svg" width="96.958" height="6.579" viewBox="0 0 96.958 6.579" fill="#253D4E"><path d="M 5.867 6.478 L 5.858 2.245 L 3.759 5.749 L 3.23 5.749 L 1.131 2.299 L 1.131 6.478 L 0 6.478 L 0 0.091 L 0.976 0.091 L 3.513 4.325 L 6.004 0.091 L 6.98 0.091 L 6.989 6.478 L 5.867 6.478 Z M 13.77 5 L 10.577 5 L 9.947 6.478 L 8.724 6.478 L 11.598 0.091 L 12.766 0.091 L 15.649 6.478 L 14.409 6.478 L 13.77 5 Z M 13.378 4.07 L 12.173 1.277 L 10.978 4.07 L 13.378 4.07 Z M 21.554 6.478 L 20.249 4.608 C 20.193 4.614 20.111 4.617 20.003 4.617 L 18.56 4.617 L 18.56 6.478 L 17.374 6.478 L 17.374 0.091 L 20.003 0.091 C 20.556 0.091 21.036 0.182 21.444 0.365 C 21.858 0.547 22.174 0.809 22.392 1.15 C 22.612 1.49 22.721 1.895 22.721 2.363 C 22.721 2.844 22.603 3.257 22.366 3.604 C 22.134 3.951 21.8 4.209 21.362 4.38 L 22.831 6.478 L 21.554 6.478 Z M 21.526 2.363 C 21.526 1.956 21.392 1.642 21.124 1.423 C 20.856 1.204 20.465 1.095 19.947 1.095 L 18.56 1.095 L 18.56 3.641 L 19.947 3.641 C 20.465 3.641 20.856 3.531 21.124 3.312 C 21.392 3.087 21.526 2.771 21.526 2.363 Z M 26.167 1.095 L 24.051 1.095 L 24.051 0.091 L 29.47 0.091 L 29.47 1.095 L 27.353 1.095 L 27.353 6.478 L 26.167 6.478 L 26.167 1.095 Z M 39.498 6.579 L 38.695 5.803 C 38.099 6.314 37.384 6.57 36.551 6.57 C 36.106 6.57 35.708 6.497 35.355 6.351 C 35.002 6.205 34.726 6.004 34.525 5.749 C 34.324 5.487 34.224 5.192 34.224 4.863 C 34.224 4.468 34.339 4.121 34.571 3.823 C 34.802 3.519 35.179 3.221 35.702 2.929 C 35.447 2.674 35.264 2.436 35.154 2.217 C 35.045 1.992 34.99 1.761 34.99 1.524 C 34.99 1.074 35.158 0.712 35.492 0.438 C 35.832 0.158 36.283 0.018 36.843 0.018 C 37.359 0.018 37.773 0.146 38.083 0.401 C 38.394 0.651 38.549 0.992 38.549 1.423 C 38.549 1.752 38.445 2.044 38.238 2.299 C 38.038 2.555 37.707 2.813 37.244 3.075 L 38.622 4.389 C 38.774 4.091 38.893 3.732 38.978 3.312 L 39.899 3.613 C 39.778 4.179 39.586 4.666 39.324 5.073 L 40.128 5.84 L 39.498 6.579 Z M 36.843 0.83 C 36.593 0.83 36.396 0.894 36.249 1.022 C 36.104 1.144 36.031 1.305 36.031 1.506 C 36.031 1.652 36.07 1.791 36.149 1.925 C 36.228 2.053 36.38 2.229 36.605 2.455 C 36.97 2.254 37.223 2.08 37.363 1.934 C 37.508 1.782 37.582 1.618 37.582 1.442 C 37.582 1.253 37.515 1.104 37.381 0.995 C 37.253 0.885 37.074 0.83 36.843 0.83 Z M 36.633 5.639 C 37.162 5.639 37.624 5.478 38.02 5.155 L 36.331 3.54 C 35.966 3.741 35.708 3.936 35.556 4.124 C 35.41 4.307 35.337 4.514 35.337 4.745 C 35.337 5.012 35.456 5.228 35.693 5.393 C 35.93 5.557 36.244 5.639 36.633 5.639 Z M 49.858 3.212 L 50.98 3.212 L 50.98 5.758 C 50.652 6.019 50.269 6.22 49.831 6.36 C 49.393 6.5 48.943 6.57 48.481 6.57 C 47.829 6.57 47.242 6.43 46.719 6.15 C 46.196 5.864 45.786 5.472 45.488 4.973 C 45.189 4.474 45.04 3.911 45.04 3.285 C 45.04 2.658 45.189 2.096 45.488 1.597 C 45.786 1.098 46.196 0.709 46.719 0.429 C 47.248 0.143 47.842 0 48.499 0 C 49.034 0 49.52 0.088 49.959 0.265 C 50.397 0.441 50.764 0.7 51.062 1.04 L 50.315 1.77 C 49.827 1.284 49.241 1.04 48.553 1.04 C 48.103 1.04 47.702 1.134 47.349 1.323 C 47.002 1.512 46.728 1.776 46.528 2.117 C 46.333 2.458 46.235 2.847 46.235 3.285 C 46.235 3.711 46.333 4.094 46.528 4.435 C 46.728 4.775 47.002 5.043 47.349 5.238 C 47.702 5.432 48.1 5.53 48.544 5.53 C 49.043 5.53 49.481 5.42 49.858 5.201 L 49.858 3.212 Z M 57.636 6.478 L 56.332 4.608 C 56.277 4.614 56.195 4.617 56.085 4.617 L 54.643 4.617 L 54.643 6.478 L 53.457 6.478 L 53.457 0.091 L 56.085 0.091 C 56.639 0.091 57.12 0.182 57.527 0.365 C 57.941 0.547 58.257 0.809 58.476 1.15 C 58.695 1.49 58.805 1.895 58.805 2.363 C 58.805 2.844 58.686 3.257 58.449 3.604 C 58.217 3.951 57.883 4.209 57.445 4.38 L 58.914 6.478 L 57.636 6.478 Z M 57.609 2.363 C 57.609 1.956 57.475 1.642 57.208 1.423 C 56.94 1.204 56.548 1.095 56.031 1.095 L 54.643 1.095 L 54.643 3.641 L 56.031 3.641 C 56.548 3.641 56.94 3.531 57.208 3.312 C 57.475 3.087 57.609 2.771 57.609 2.363 Z M 64.028 6.57 C 63.377 6.57 62.79 6.43 62.267 6.15 C 61.744 5.864 61.333 5.472 61.035 4.973 C 60.737 4.468 60.588 3.905 60.588 3.285 C 60.588 2.664 60.737 2.105 61.035 1.606 C 61.333 1.101 61.744 0.709 62.267 0.429 C 62.79 0.143 63.377 0 64.028 0 C 64.679 0 65.266 0.143 65.789 0.429 C 66.312 0.709 66.722 1.098 67.021 1.597 C 67.319 2.096 67.468 2.658 67.468 3.285 C 67.468 3.911 67.319 4.474 67.021 4.973 C 66.722 5.472 66.312 5.864 65.789 6.15 C 65.266 6.43 64.679 6.57 64.028 6.57 Z M 64.028 5.53 C 64.454 5.53 64.837 5.435 65.178 5.247 C 65.518 5.052 65.786 4.784 65.981 4.444 C 66.175 4.097 66.273 3.711 66.273 3.285 C 66.273 2.859 66.175 2.476 65.981 2.135 C 65.786 1.788 65.518 1.521 65.178 1.332 C 64.837 1.138 64.454 1.04 64.028 1.04 C 63.602 1.04 63.219 1.138 62.878 1.332 C 62.537 1.521 62.27 1.788 62.075 2.135 C 61.88 2.476 61.783 2.859 61.783 3.285 C 61.783 3.711 61.88 4.097 62.075 4.444 C 62.27 4.784 62.537 5.052 62.878 5.247 C 63.219 5.435 63.602 5.53 64.028 5.53 Z M 72.594 6.57 C 71.949 6.57 71.365 6.43 70.842 6.15 C 70.325 5.864 69.918 5.472 69.62 4.973 C 69.327 4.474 69.182 3.911 69.182 3.285 C 69.182 2.658 69.331 2.096 69.629 1.597 C 69.927 1.098 70.334 0.709 70.851 0.429 C 71.374 0.143 71.958 0 72.603 0 C 73.126 0 73.603 0.091 74.035 0.274 C 74.467 0.456 74.832 0.721 75.13 1.068 L 74.364 1.788 C 73.902 1.29 73.333 1.04 72.658 1.04 C 72.22 1.04 71.828 1.138 71.48 1.332 C 71.134 1.521 70.863 1.785 70.668 2.126 C 70.474 2.467 70.377 2.853 70.377 3.285 C 70.377 3.717 70.474 4.103 70.668 4.444 C 70.863 4.784 71.134 5.052 71.48 5.247 C 71.828 5.435 72.22 5.53 72.658 5.53 C 73.333 5.53 73.902 5.277 74.364 4.772 L 75.13 5.502 C 74.832 5.849 74.465 6.113 74.027 6.296 C 73.595 6.478 73.117 6.57 72.594 6.57 Z M 81.97 5.484 L 81.97 6.478 L 77.18 6.478 L 77.18 0.091 L 81.842 0.091 L 81.842 1.086 L 78.366 1.086 L 78.366 2.747 L 81.45 2.747 L 81.45 3.723 L 78.366 3.723 L 78.366 5.484 L 81.97 5.484 Z M 88.384 6.478 L 87.079 4.608 C 87.024 4.614 86.942 4.617 86.832 4.617 L 85.391 4.617 L 85.391 6.478 L 84.205 6.478 L 84.205 0.091 L 86.832 0.091 C 87.387 0.091 87.867 0.182 88.275 0.365 C 88.688 0.547 89.005 0.809 89.223 1.15 C 89.443 1.49 89.552 1.895 89.552 2.363 C 89.552 2.844 89.433 3.257 89.196 3.604 C 88.965 3.951 88.631 4.209 88.193 4.38 L 89.661 6.478 L 88.384 6.478 Z M 88.357 2.363 C 88.357 1.956 88.223 1.642 87.955 1.423 C 87.687 1.204 87.295 1.095 86.778 1.095 L 85.391 1.095 L 85.391 3.641 L 86.778 3.641 C 87.295 3.641 87.687 3.531 87.955 3.312 C 88.223 3.087 88.357 2.771 88.357 2.363 Z M 94.458 4.225 L 94.458 6.478 L 93.272 6.478 L 93.272 4.243 L 90.763 0.091 L 92.031 0.091 L 93.901 3.203 L 95.79 0.091 L 96.958 0.091 L 94.458 4.225 Z"></path></svg>