<svg xmlns="http://www.w3.org/2000/svg" width="96.900" height="32.987" viewBox="0 0 96.900 32.987" fill="#3BB77E"><path d="M 24.67 0 C 25.414 0 26.018 0.248 26.483 0.743 C 26.947 1.239 27.179 1.858 27.179 2.602 L 27.179 29.688 C 27.179 30.493 26.9 31.175 26.343 31.732 C 25.816 32.259 25.151 32.522 24.346 32.522 C 23.943 32.522 23.524 32.46 23.091 32.336 C 22.688 32.181 22.378 31.98 22.162 31.732 L 3.903 8.549 L 5.111 7.805 L 5.111 29.92 C 5.111 30.664 4.863 31.283 4.367 31.779 C 3.903 32.274 3.283 32.522 2.509 32.522 C 1.765 32.522 1.162 32.274 0.697 31.779 C 0.232 31.283 0 30.664 0 29.92 L 0 2.834 C 0 2.029 0.263 1.363 0.79 0.836 C 1.347 0.279 2.029 0 2.834 0 C 3.268 0 3.717 0.093 4.181 0.279 C 4.646 0.434 4.987 0.681 5.204 1.022 L 22.905 23.602 L 22.115 24.159 L 22.115 2.602 C 22.115 1.858 22.347 1.239 22.812 0.743 C 23.277 0.248 23.896 0 24.67 0 Z M 45.157 32.987 C 42.525 32.987 40.232 32.445 38.281 31.361 C 36.361 30.246 34.874 28.743 33.821 26.854 C 32.799 24.965 32.287 22.827 32.287 20.442 C 32.287 17.655 32.845 15.285 33.96 13.334 C 35.106 11.352 36.593 9.834 38.42 8.781 C 40.248 7.728 42.184 7.201 44.228 7.201 C 45.808 7.201 47.294 7.527 48.688 8.177 C 50.113 8.827 51.367 9.726 52.451 10.872 C 53.535 11.987 54.387 13.288 55.007 14.774 C 55.657 16.261 55.982 17.841 55.982 19.513 C 55.951 20.257 55.657 20.861 55.1 21.325 C 54.542 21.79 53.892 22.022 53.148 22.022 L 35.401 22.022 L 34.007 17.376 L 51.057 17.376 L 50.035 18.305 L 50.035 17.051 C 49.973 16.153 49.648 15.347 49.06 14.635 C 48.502 13.923 47.79 13.365 46.923 12.962 C 46.086 12.529 45.188 12.312 44.228 12.312 C 43.299 12.312 42.432 12.436 41.626 12.684 C 40.821 12.931 40.124 13.35 39.535 13.938 C 38.947 14.527 38.482 15.316 38.141 16.308 C 37.801 17.299 37.631 18.553 37.631 20.071 C 37.631 21.743 37.971 23.168 38.653 24.345 C 39.365 25.491 40.263 26.374 41.348 26.993 C 42.463 27.582 43.64 27.876 44.878 27.876 C 46.025 27.876 46.938 27.783 47.619 27.597 C 48.301 27.412 48.843 27.195 49.246 26.947 C 49.679 26.668 50.066 26.436 50.407 26.25 C 50.964 25.971 51.491 25.832 51.986 25.832 C 52.668 25.832 53.225 26.064 53.659 26.529 C 54.124 26.993 54.356 27.535 54.356 28.155 C 54.356 28.991 53.923 29.75 53.055 30.431 C 52.25 31.113 51.119 31.717 49.663 32.243 C 48.208 32.739 46.706 32.987 45.157 32.987 Z M 59.173 28.666 C 58.863 28.232 58.724 27.675 58.755 26.993 C 58.786 26.312 59.188 25.723 59.963 25.228 C 60.458 24.918 60.985 24.794 61.542 24.856 C 62.1 24.887 62.642 25.166 63.169 25.693 C 64.067 26.591 65.011 27.288 66.002 27.783 C 66.994 28.279 68.232 28.527 69.719 28.527 C 70.184 28.496 70.695 28.434 71.253 28.341 C 71.81 28.217 72.29 27.969 72.693 27.597 C 73.126 27.195 73.343 26.591 73.343 25.785 C 73.343 25.104 73.111 24.562 72.647 24.159 C 72.182 23.757 71.563 23.416 70.788 23.137 C 70.045 22.858 69.209 22.595 68.279 22.347 C 67.319 22.069 66.328 21.759 65.306 21.418 C 64.315 21.077 63.401 20.644 62.564 20.117 C 61.728 19.56 61.047 18.832 60.52 17.934 C 59.994 17.035 59.731 15.905 59.731 14.542 C 59.731 12.993 60.164 11.677 61.032 10.593 C 61.899 9.509 63.014 8.673 64.377 8.084 C 65.771 7.496 67.226 7.201 68.744 7.201 C 69.704 7.201 70.71 7.325 71.763 7.573 C 72.817 7.79 73.824 8.162 74.784 8.688 C 75.744 9.184 76.549 9.85 77.2 10.686 C 77.54 11.15 77.741 11.708 77.803 12.358 C 77.865 13.009 77.571 13.597 76.921 14.124 C 76.456 14.496 75.914 14.666 75.294 14.635 C 74.675 14.573 74.164 14.356 73.762 13.985 C 73.235 13.303 72.523 12.761 71.625 12.358 C 70.757 11.956 69.75 11.754 68.604 11.754 C 68.14 11.754 67.629 11.816 67.071 11.94 C 66.545 12.033 66.08 12.266 65.678 12.637 C 65.275 12.978 65.073 13.535 65.073 14.31 C 65.073 15.022 65.306 15.595 65.771 16.029 C 66.235 16.431 66.855 16.772 67.629 17.051 C 68.434 17.299 69.286 17.546 70.184 17.794 C 71.113 18.042 72.058 18.336 73.018 18.677 C 73.978 19.018 74.861 19.467 75.666 20.024 C 76.471 20.582 77.122 21.31 77.617 22.208 C 78.113 23.075 78.361 24.19 78.361 25.553 C 78.361 27.133 77.896 28.48 76.967 29.595 C 76.038 30.71 74.877 31.562 73.483 32.15 C 72.089 32.708 70.664 32.987 69.209 32.987 C 67.381 32.987 65.554 32.677 63.726 32.058 C 61.899 31.407 60.381 30.277 59.173 28.666 Z M 83.287 8.131 L 94.298 8.131 C 95.041 8.131 95.661 8.378 96.156 8.874 C 96.652 9.369 96.9 9.989 96.9 10.732 C 96.9 11.445 96.652 12.049 96.156 12.544 C 95.661 13.009 95.041 13.241 94.298 13.241 L 83.287 13.241 C 82.544 13.241 81.924 12.993 81.429 12.498 C 80.933 12.002 80.686 11.383 80.686 10.639 C 80.686 9.927 80.933 9.339 81.429 8.874 C 81.924 8.378 82.544 8.131 83.287 8.131 Z M 88.258 2.323 C 89.063 2.323 89.714 2.602 90.209 3.159 C 90.736 3.686 91 4.352 91 5.157 L 91 25.832 C 91 26.266 91.077 26.622 91.232 26.9 C 91.417 27.179 91.65 27.381 91.929 27.504 C 92.239 27.628 92.563 27.69 92.904 27.69 C 93.276 27.69 93.617 27.628 93.926 27.504 C 94.236 27.35 94.593 27.272 94.995 27.272 C 95.429 27.272 95.816 27.473 96.156 27.876 C 96.528 28.279 96.714 28.836 96.714 29.549 C 96.714 30.416 96.234 31.128 95.274 31.686 C 94.345 32.243 93.338 32.522 92.254 32.522 C 91.603 32.522 90.876 32.476 90.07 32.383 C 89.296 32.259 88.553 31.996 87.84 31.593 C 87.159 31.159 86.586 30.509 86.121 29.642 C 85.656 28.774 85.424 27.582 85.424 26.064 L 85.424 5.157 C 85.424 4.352 85.687 3.686 86.214 3.159 C 86.771 2.602 87.453 2.323 88.258 2.323 Z"></path></svg>